<svg width="387" height="128" viewBox="0 0 387 128" fill="none" xmlns="http://www.w3.org/2000/svg">
<path d="M29.655 31H23.22L20.745 23.755H9.36L6.885 31H0.54L11.385 1.3H18.81L29.655 31ZM10.755 19.165H19.35L15.03 6.205L10.755 19.165ZM58.3868 22.81C57.8168 24.73 56.9168 26.335 55.6868 27.625C54.4568 28.915 53.0018 29.875 51.3218 30.505C49.6418 31.135 47.7968 31.45 45.7868 31.45C42.8468 31.45 40.2968 30.835 38.1368 29.605C36.0068 28.375 34.3568 26.62 33.1868 24.34C32.0468 22.06 31.4768 19.33 31.4768 16.15C31.4768 12.97 32.0468 10.24 33.1868 7.96C34.3568 5.68 36.0068 3.925 38.1368 2.695C40.2968 1.465 42.8168 0.849999 45.6968 0.849999C47.7368 0.849999 49.5818 1.135 51.2318 1.705C52.8818 2.245 54.2768 3.085 55.4168 4.225C56.5868 5.365 57.4418 6.805 57.9818 8.545L52.3568 10.93C51.8468 9.13 51.0668 7.855 50.0168 7.105C48.9668 6.325 47.6168 5.935 45.9668 5.935C44.3468 5.935 42.9218 6.325 41.6918 7.105C40.4918 7.885 39.5618 9.04 38.9018 10.57C38.2418 12.07 37.9118 13.93 37.9118 16.15C37.9118 18.34 38.2118 20.2 38.8118 21.73C39.4418 23.26 40.3568 24.415 41.5568 25.195C42.7568 25.975 44.2268 26.365 45.9668 26.365C47.5868 26.365 48.9818 25.93 50.1518 25.06C51.3518 24.19 52.1918 22.87 52.6718 21.1L58.3868 22.81ZM89.1046 22.81C88.5346 24.73 87.6346 26.335 86.4046 27.625C85.1746 28.915 83.7196 29.875 82.0396 30.505C80.3596 31.135 78.5146 31.45 76.5046 31.45C73.5646 31.45 71.0146 30.835 68.8546 29.605C66.7246 28.375 65.0746 26.62 63.9046 24.34C62.7646 22.06 62.1946 19.33 62.1946 16.15C62.1946 12.97 62.7646 10.24 63.9046 7.96C65.0746 5.68 66.7246 3.925 68.8546 2.695C71.0146 1.465 73.5346 0.849999 76.4146 0.849999C78.4546 0.849999 80.2996 1.135 81.9496 1.705C83.5996 2.245 84.9946 3.085 86.1346 4.225C87.3046 5.365 88.1596 6.805 88.6996 8.545L83.0746 10.93C82.5646 9.13 81.7846 7.855 80.7346 7.105C79.6846 6.325 78.3346 5.935 76.6846 5.935C75.0646 5.935 73.6396 6.325 72.4096 7.105C71.2096 7.885 70.2796 9.04 69.6196 10.57C68.9596 12.07 68.6296 13.93 68.6296 16.15C68.6296 18.34 68.9296 20.2 69.5296 21.73C70.1596 23.26 71.0746 24.415 72.2746 25.195C73.4746 25.975 74.9446 26.365 76.6846 26.365C78.3046 26.365 79.6996 25.93 80.8696 25.06C82.0696 24.19 82.9096 22.87 83.3896 21.1L89.1046 22.81ZM107.222 0.849999C110.162 0.849999 112.697 1.465 114.827 2.695C116.957 3.925 118.592 5.68 119.732 7.96C120.902 10.24 121.487 12.97 121.487 16.15C121.487 19.33 120.902 22.06 119.732 24.34C118.592 26.62 116.957 28.375 114.827 29.605C112.697 30.835 110.162 31.45 107.222 31.45C104.282 31.45 101.732 30.835 99.5723 29.605C97.4423 28.375 95.7923 26.62 94.6223 24.34C93.4823 22.06 92.9123 19.33 92.9123 16.15C92.9123 12.97 93.4823 10.24 94.6223 7.96C95.7923 5.68 97.4423 3.925 99.5723 2.695C101.732 1.465 104.282 0.849999 107.222 0.849999ZM107.222 5.935C105.542 5.935 104.117 6.325 102.947 7.105C101.777 7.885 100.877 9.04 100.247 10.57C99.6473 12.07 99.3473 13.93 99.3473 16.15C99.3473 18.34 99.6473 20.2 100.247 21.73C100.877 23.26 101.777 24.415 102.947 25.195C104.117 25.975 105.542 26.365 107.222 26.365C108.872 26.365 110.282 25.975 111.452 25.195C112.622 24.415 113.507 23.26 114.107 21.73C114.737 20.2 115.052 18.34 115.052 16.15C115.052 13.93 114.737 12.07 114.107 10.57C113.507 9.04 112.622 7.885 111.452 7.105C110.282 6.325 108.872 5.935 107.222 5.935ZM152.547 1.3V19.3C152.547 23.35 151.467 26.395 149.307 28.435C147.147 30.445 143.997 31.45 139.857 31.45C135.717 31.45 132.567 30.445 130.407 28.435C128.247 26.395 127.167 23.35 127.167 19.3V1.3H133.377V19.03C133.377 21.52 133.902 23.365 134.952 24.565C136.032 25.765 137.667 26.365 139.857 26.365C142.047 26.365 143.667 25.765 144.717 24.565C145.767 23.365 146.292 21.52 146.292 19.03V1.3H152.547ZM185.215 1.3V31H178.105L167.71 13.54L165.145 8.68H165.1L165.28 13.81V31H159.7V1.3H166.765L177.16 18.715L179.725 23.62H179.815L179.635 18.49V1.3H185.215ZM216.457 1.3V6.295H206.512V31H200.302V6.295H190.312V1.3H216.457ZM221.531 31V1.3H243.806V6.295H227.741V13.675H240.386V18.445H227.741V26.005H244.436V31H221.531ZM269.817 40C268.017 40 266.382 39.685 264.912 39.055C263.472 38.455 262.332 37.495 261.492 36.175C260.652 34.855 260.232 33.175 260.232 31.135C260.232 30.655 260.277 30.145 260.367 29.605C260.487 29.065 260.667 28.54 260.907 28.03L264.957 27.4C264.747 27.94 264.582 28.435 264.462 28.885C264.372 29.305 264.327 29.695 264.327 30.055C264.327 31.435 264.582 32.485 265.092 33.205C265.602 33.925 266.277 34.42 267.117 34.69C267.957 34.96 268.887 35.095 269.907 35.095C271.137 35.095 272.187 34.945 273.057 34.645C273.957 34.375 274.707 33.985 275.307 33.475L276.432 38.11C275.682 38.71 274.677 39.175 273.417 39.505C272.187 39.835 270.987 40 269.817 40ZM262.437 0.849999C265.377 0.849999 267.912 1.465 270.042 2.695C272.172 3.925 273.807 5.68 274.947 7.96C276.117 10.24 276.702 12.97 276.702 16.15C276.702 19.33 276.117 22.06 274.947 24.34C273.807 26.62 272.172 28.375 270.042 29.605C267.912 30.835 265.377 31.45 262.437 31.45C259.497 31.45 256.947 30.835 254.787 29.605C252.657 28.375 251.007 26.62 249.837 24.34C248.697 22.06 248.127 19.33 248.127 16.15C248.127 12.97 248.697 10.24 249.837 7.96C251.007 5.68 252.657 3.925 254.787 2.695C256.947 1.465 259.497 0.849999 262.437 0.849999ZM262.437 5.935C260.757 5.935 259.332 6.325 258.162 7.105C256.992 7.885 256.092 9.04 255.462 10.57C254.862 12.07 254.562 13.93 254.562 16.15C254.562 18.34 254.862 20.2 255.462 21.73C256.092 23.26 256.992 24.415 258.162 25.195C259.332 25.975 260.757 26.365 262.437 26.365C264.087 26.365 265.497 25.975 266.667 25.195C267.837 24.415 268.722 23.26 269.322 21.73C269.952 20.2 270.267 18.34 270.267 16.15C270.267 13.93 269.952 12.07 269.322 10.57C268.722 9.04 267.837 7.885 266.667 7.105C265.497 6.325 264.087 5.935 262.437 5.935ZM307.762 1.3V19.3C307.762 23.35 306.682 26.395 304.522 28.435C302.362 30.445 299.212 31.45 295.072 31.45C290.932 31.45 287.782 30.445 285.622 28.435C283.462 26.395 282.382 23.35 282.382 19.3V1.3H288.592V19.03C288.592 21.52 289.117 23.365 290.167 24.565C291.247 25.765 292.882 26.365 295.072 26.365C297.262 26.365 298.882 25.765 299.932 24.565C300.982 23.365 301.507 21.52 301.507 19.03V1.3H307.762ZM314.915 31V1.3H337.19V6.295H321.125V13.675H333.77V18.445H321.125V26.005H337.82V31H314.915ZM14.715 45.85C17.415 45.85 19.785 46.315 21.825 47.245C23.865 48.175 25.605 49.555 27.045 51.385L23.58 55.39C22.35 53.83 21 52.69 19.53 51.97C18.09 51.22 16.41 50.845 14.49 50.845C13.23 50.845 12.18 51.01 11.34 51.34C10.53 51.67 9.93 52.105 9.54 52.645C9.18 53.185 9 53.785 9 54.445C9 55.255 9.315 55.945 9.945 56.515C10.575 57.055 11.655 57.505 13.185 57.865L18.72 59.125C21.66 59.785 23.76 60.775 25.02 62.095C26.31 63.385 26.955 65.065 26.955 67.135C26.955 69.085 26.445 70.765 25.425 72.175C24.405 73.555 22.98 74.62 21.15 75.37C19.32 76.09 17.22 76.45 14.85 76.45C12.78 76.45 10.875 76.21 9.135 75.73C7.425 75.22 5.895 74.53 4.545 73.66C3.195 72.79 2.07 71.785 1.17 70.645L4.68 66.46C5.37 67.42 6.225 68.275 7.245 69.025C8.265 69.775 9.42 70.375 10.71 70.825C12.03 71.245 13.41 71.455 14.85 71.455C16.08 71.455 17.115 71.32 17.955 71.05C18.825 70.75 19.47 70.345 19.89 69.835C20.34 69.295 20.565 68.65 20.565 67.9C20.565 67.12 20.295 66.46 19.755 65.92C19.245 65.35 18.285 64.915 16.875 64.615L10.845 63.265C9.105 62.845 7.605 62.305 6.345 61.645C5.115 60.955 4.17 60.085 3.51 59.035C2.88 57.955 2.565 56.68 2.565 55.21C2.565 53.44 3.045 51.85 4.005 50.44C4.965 49.03 6.345 47.92 8.145 47.11C9.975 46.27 12.165 45.85 14.715 45.85ZM32.83 76V46.3H55.105V51.295H39.04V58.675H51.685V63.445H39.04V71.005H55.735V76H32.83ZM74.4015 46.3C77.7615 46.3 80.4015 47.11 82.3215 48.73C84.2415 50.35 85.2015 52.525 85.2015 55.255C85.2015 58.165 84.2415 60.4 82.3215 61.96C80.4015 63.49 77.7765 64.255 74.4465 64.255L73.8165 64.615H67.4265V76H61.3065V46.3H74.4015ZM73.6815 59.89C75.4215 59.89 76.7115 59.545 77.5515 58.855C78.4215 58.135 78.8565 57.04 78.8565 55.57C78.8565 54.1 78.4215 53.02 77.5515 52.33C76.7115 51.61 75.4215 51.25 73.6815 51.25H67.4265V59.89H73.6815ZM77.3265 61.195L86.9565 76H79.9815L72.0165 62.995L77.3265 61.195ZM117.147 46.3L106.347 76H99.102L88.257 46.3H94.827L101.082 65.2L102.792 71.05L104.457 65.245L110.757 46.3H117.147ZM127.853 46.3V76H121.643V46.3H127.853ZM160.999 67.81C160.429 69.73 159.529 71.335 158.299 72.625C157.069 73.915 155.614 74.875 153.934 75.505C152.254 76.135 150.409 76.45 148.399 76.45C145.459 76.45 142.909 75.835 140.749 74.605C138.619 73.375 136.969 71.62 135.799 69.34C134.659 67.06 134.089 64.33 134.089 61.15C134.089 57.97 134.659 55.24 135.799 52.96C136.969 50.68 138.619 48.925 140.749 47.695C142.909 46.465 145.429 45.85 148.309 45.85C150.349 45.85 152.194 46.135 153.844 46.705C155.494 47.245 156.889 48.085 158.029 49.225C159.199 50.365 160.054 51.805 160.594 53.545L154.969 55.93C154.459 54.13 153.679 52.855 152.629 52.105C151.579 51.325 150.229 50.935 148.579 50.935C146.959 50.935 145.534 51.325 144.304 52.105C143.104 52.885 142.174 54.04 141.514 55.57C140.854 57.07 140.524 58.93 140.524 61.15C140.524 63.34 140.824 65.2 141.424 66.73C142.054 68.26 142.969 69.415 144.169 70.195C145.369 70.975 146.839 71.365 148.579 71.365C150.199 71.365 151.594 70.93 152.764 70.06C153.964 69.19 154.804 67.87 155.284 66.1L160.999 67.81ZM166.292 76V46.3H188.567V51.295H172.502V58.675H185.147V63.445H172.502V71.005H189.197V76H166.292ZM205.613 45.85C208.313 45.85 210.683 46.315 212.723 47.245C214.763 48.175 216.503 49.555 217.943 51.385L214.478 55.39C213.248 53.83 211.898 52.69 210.428 51.97C208.988 51.22 207.308 50.845 205.388 50.845C204.128 50.845 203.078 51.01 202.238 51.34C201.428 51.67 200.828 52.105 200.438 52.645C200.078 53.185 199.898 53.785 199.898 54.445C199.898 55.255 200.213 55.945 200.843 56.515C201.473 57.055 202.553 57.505 204.083 57.865L209.618 59.125C212.558 59.785 214.658 60.775 215.918 62.095C217.208 63.385 217.853 65.065 217.853 67.135C217.853 69.085 217.343 70.765 216.323 72.175C215.303 73.555 213.878 74.62 212.048 75.37C210.218 76.09 208.118 76.45 205.748 76.45C203.678 76.45 201.773 76.21 200.033 75.73C198.323 75.22 196.793 74.53 195.443 73.66C194.093 72.79 192.968 71.785 192.068 70.645L195.578 66.46C196.268 67.42 197.123 68.275 198.143 69.025C199.163 69.775 200.318 70.375 201.608 70.825C202.928 71.245 204.308 71.455 205.748 71.455C206.978 71.455 208.013 71.32 208.853 71.05C209.723 70.75 210.368 70.345 210.788 69.835C211.238 69.295 211.463 68.65 211.463 67.9C211.463 67.12 211.193 66.46 210.653 65.92C210.143 65.35 209.183 64.915 207.773 64.615L201.743 63.265C200.003 62.845 198.503 62.305 197.243 61.645C196.013 60.955 195.068 60.085 194.408 59.035C193.778 57.955 193.463 56.68 193.463 55.21C193.463 53.44 193.943 51.85 194.903 50.44C195.863 49.03 197.243 47.92 199.043 47.11C200.873 46.27 203.063 45.85 205.613 45.85ZM226.069 69.115C227.029 69.115 227.824 69.355 228.454 69.835C229.084 70.285 229.564 70.9 229.894 71.68C230.224 72.43 230.389 73.27 230.389 74.2C230.389 75.43 230.134 76.615 229.624 77.755C229.144 78.895 228.469 79.915 227.599 80.815C226.729 81.715 225.739 82.42 224.629 82.93L221.974 80.815C222.784 80.485 223.519 80.08 224.179 79.6C224.869 79.12 225.454 78.58 225.934 77.98C226.414 77.38 226.759 76.765 226.969 76.135L226.744 76C226.594 76.09 226.414 76.165 226.204 76.225C225.994 76.315 225.694 76.36 225.304 76.36C224.824 76.36 224.344 76.24 223.864 76C223.384 75.73 222.979 75.355 222.649 74.875C222.319 74.365 222.154 73.735 222.154 72.985C222.154 72.175 222.334 71.485 222.694 70.915C223.054 70.345 223.534 69.91 224.134 69.61C224.734 69.28 225.379 69.115 226.069 69.115ZM256.306 46.3V76H250.096V46.3H256.306ZM289.541 46.3V76H282.431L272.036 58.54L269.471 53.68H269.426L269.606 58.81V76H264.026V46.3H271.091L281.486 63.715L284.051 68.62H284.141L283.961 63.49V46.3H289.541ZM322.718 67.81C322.148 69.73 321.248 71.335 320.018 72.625C318.788 73.915 317.333 74.875 315.653 75.505C313.973 76.135 312.128 76.45 310.118 76.45C307.178 76.45 304.628 75.835 302.468 74.605C300.338 73.375 298.688 71.62 297.518 69.34C296.378 67.06 295.808 64.33 295.808 61.15C295.808 57.97 296.378 55.24 297.518 52.96C298.688 50.68 300.338 48.925 302.468 47.695C304.628 46.465 307.148 45.85 310.028 45.85C312.068 45.85 313.913 46.135 315.563 46.705C317.213 47.245 318.608 48.085 319.748 49.225C320.918 50.365 321.773 51.805 322.313 53.545L316.688 55.93C316.178 54.13 315.398 52.855 314.348 52.105C313.298 51.325 311.948 50.935 310.298 50.935C308.678 50.935 307.253 51.325 306.023 52.105C304.823 52.885 303.893 54.04 303.233 55.57C302.573 57.07 302.243 58.93 302.243 61.15C302.243 63.34 302.543 65.2 303.143 66.73C303.773 68.26 304.688 69.415 305.888 70.195C307.088 70.975 308.558 71.365 310.298 71.365C311.918 71.365 313.313 70.93 314.483 70.06C315.683 69.19 316.523 67.87 317.003 66.1L322.718 67.81Z" fill="black"/>
<path d="M3.038 121V100.54H17.856V103.392H6.355V109.282H15.345V112.072H6.355V118.148H18.29V121H3.038ZM24.699 105.5L29.07 112.134L29.69 112.227L35.983 121H32.046L27.489 114.18L26.776 113.932L20.7 105.5H24.699ZM35.89 105.5L29.814 113.808L29.132 113.777L24.172 121H20.39L26.993 112.165L27.644 112.227L32.077 105.5H35.89ZM39.325 127.51V105.5H42.27L42.518 109.84L42.084 109.313C42.332 108.507 42.7143 107.794 43.231 107.174C43.7476 106.554 44.3883 106.068 45.153 105.717C45.9383 105.366 46.796 105.19 47.726 105.19C48.9866 105.19 50.1336 105.51 51.167 106.151C52.2003 106.792 53.0166 107.711 53.616 108.91C54.2153 110.088 54.515 111.524 54.515 113.219C54.515 114.914 54.205 116.371 53.585 117.59C52.9856 118.789 52.159 119.708 51.105 120.349C50.0716 120.99 48.9143 121.31 47.633 121.31C46.3103 121.31 45.184 120.969 44.254 120.287C43.324 119.584 42.6626 118.696 42.27 117.621L42.642 117.094V127.51H39.325ZM46.92 118.613C48.2633 118.613 49.307 118.138 50.051 117.187C50.8156 116.236 51.198 114.924 51.198 113.25C51.198 111.576 50.826 110.264 50.082 109.313C49.338 108.342 48.3046 107.856 46.982 107.856C46.114 107.856 45.3493 108.083 44.688 108.538C44.0473 108.972 43.541 109.592 43.169 110.398C42.8176 111.183 42.642 112.134 42.642 113.25C42.642 114.345 42.8176 115.296 43.169 116.102C43.5203 116.908 44.0163 117.528 44.657 117.962C45.2976 118.396 46.052 118.613 46.92 118.613ZM65.5805 121.31C64.0305 121.31 62.6665 120.99 61.4885 120.349C60.3105 119.708 59.3908 118.789 58.7295 117.59C58.0888 116.371 57.7685 114.924 57.7685 113.25C57.7685 111.576 58.0888 110.14 58.7295 108.941C59.3908 107.722 60.3002 106.792 61.4575 106.151C62.6148 105.51 63.9272 105.19 65.3945 105.19C66.9032 105.19 68.1845 105.5 69.2385 106.12C70.2925 106.74 71.0985 107.587 71.6565 108.662C72.2145 109.737 72.4935 110.956 72.4935 112.32C72.4935 112.692 72.4832 113.043 72.4625 113.374C72.4418 113.705 72.4108 113.994 72.3695 114.242H59.9075V111.7H70.9125L69.2695 112.196C69.2695 110.791 68.9182 109.716 68.2155 108.972C67.5128 108.207 66.5518 107.825 65.3325 107.825C64.4438 107.825 63.6688 108.032 63.0075 108.445C62.3462 108.858 61.8398 109.478 61.4885 110.305C61.1372 111.111 60.9615 112.103 60.9615 113.281C60.9615 114.438 61.1475 115.42 61.5195 116.226C61.8915 117.032 62.4185 117.642 63.1005 118.055C63.7825 118.468 64.5885 118.675 65.5185 118.675C66.5518 118.675 67.3888 118.479 68.0295 118.086C68.6702 117.693 69.1765 117.146 69.5485 116.443L72.1835 117.683C71.8115 118.427 71.3052 119.078 70.6645 119.636C70.0445 120.173 69.3005 120.587 68.4325 120.876C67.5645 121.165 66.6138 121.31 65.5805 121.31ZM76.6824 121V105.5H79.5034L79.8134 108.29C80.2267 107.277 80.8364 106.513 81.6424 105.996C82.469 105.459 83.4817 105.19 84.6804 105.19C84.9904 105.19 85.3004 105.221 85.6104 105.283C85.9204 105.324 86.1787 105.397 86.3854 105.5L85.9204 108.414C85.693 108.331 85.4347 108.269 85.1454 108.228C84.8767 108.166 84.5047 108.135 84.0294 108.135C83.3887 108.135 82.7584 108.311 82.1384 108.662C81.5184 108.993 81.0017 109.499 80.5884 110.181C80.1957 110.863 79.9994 111.731 79.9994 112.785V121H76.6824ZM91.1923 102.896C90.469 102.896 89.911 102.72 89.5183 102.369C89.1463 101.997 88.9603 101.48 88.9603 100.819C88.9603 100.158 89.1463 99.6513 89.5183 99.3C89.911 98.9487 90.469 98.773 91.1923 98.773C91.895 98.773 92.4323 98.9487 92.8043 99.3C93.197 99.6513 93.3933 100.158 93.3933 100.819C93.3933 101.48 93.197 101.997 92.8043 102.369C92.4323 102.72 91.895 102.896 91.1923 102.896ZM92.8353 105.5V121H89.5183V105.5H92.8353ZM104.845 121.31C103.295 121.31 101.931 120.99 100.753 120.349C99.5751 119.708 98.6555 118.789 97.9941 117.59C97.3535 116.371 97.0331 114.924 97.0331 113.25C97.0331 111.576 97.3535 110.14 97.9941 108.941C98.6555 107.722 99.5648 106.792 100.722 106.151C101.879 105.51 103.192 105.19 104.659 105.19C106.168 105.19 107.449 105.5 108.503 106.12C109.557 106.74 110.363 107.587 110.921 108.662C111.479 109.737 111.758 110.956 111.758 112.32C111.758 112.692 111.748 113.043 111.727 113.374C111.706 113.705 111.675 113.994 111.634 114.242H99.1721V111.7H110.177L108.534 112.196C108.534 110.791 108.183 109.716 107.48 108.972C106.777 108.207 105.816 107.825 104.597 107.825C103.708 107.825 102.933 108.032 102.272 108.445C101.611 108.858 101.104 109.478 100.753 110.305C100.402 111.111 100.226 112.103 100.226 113.281C100.226 114.438 100.412 115.42 100.784 116.226C101.156 117.032 101.683 117.642 102.365 118.055C103.047 118.468 103.853 118.675 104.783 118.675C105.816 118.675 106.653 118.479 107.294 118.086C107.935 117.693 108.441 117.146 108.813 116.443L111.448 117.683C111.076 118.427 110.57 119.078 109.929 119.636C109.309 120.173 108.565 120.587 107.697 120.876C106.829 121.165 105.878 121.31 104.845 121.31ZM115.947 121V105.5H118.892L119.109 109.53L118.675 109.096C118.964 108.207 119.378 107.474 119.915 106.895C120.473 106.296 121.124 105.862 121.868 105.593C122.633 105.324 123.439 105.19 124.286 105.19C125.381 105.19 126.363 105.407 127.231 105.841C128.12 106.254 128.822 106.885 129.339 107.732C129.856 108.579 130.114 109.654 130.114 110.956V121H126.797V111.979C126.797 110.45 126.477 109.396 125.836 108.817C125.216 108.218 124.431 107.918 123.48 107.918C122.798 107.918 122.137 108.083 121.496 108.414C120.855 108.724 120.318 109.23 119.884 109.933C119.471 110.636 119.264 111.576 119.264 112.754V121H115.947ZM141.836 105.19C143.076 105.19 144.13 105.376 144.998 105.748C145.887 106.099 146.631 106.606 147.23 107.267C147.83 107.928 148.284 108.683 148.594 109.53L145.463 110.77C145.195 109.819 144.761 109.096 144.161 108.6C143.583 108.083 142.818 107.825 141.867 107.825C140.937 107.825 140.142 108.042 139.48 108.476C138.819 108.889 138.313 109.499 137.961 110.305C137.631 111.111 137.465 112.103 137.465 113.281C137.465 114.438 137.641 115.42 137.992 116.226C138.344 117.032 138.85 117.642 139.511 118.055C140.173 118.468 140.958 118.675 141.867 118.675C142.57 118.675 143.18 118.561 143.696 118.334C144.213 118.086 144.637 117.745 144.967 117.311C145.319 116.856 145.556 116.309 145.68 115.668L148.687 116.691C148.398 117.621 147.943 118.437 147.323 119.14C146.724 119.822 145.97 120.359 145.06 120.752C144.151 121.124 143.107 121.31 141.929 121.31C140.4 121.31 139.046 120.99 137.868 120.349C136.69 119.708 135.771 118.789 135.109 117.59C134.469 116.371 134.148 114.924 134.148 113.25C134.148 111.576 134.469 110.14 135.109 108.941C135.771 107.722 136.68 106.792 137.837 106.151C139.015 105.51 140.348 105.19 141.836 105.19ZM159.368 121.31C157.818 121.31 156.454 120.99 155.276 120.349C154.098 119.708 153.178 118.789 152.517 117.59C151.876 116.371 151.556 114.924 151.556 113.25C151.556 111.576 151.876 110.14 152.517 108.941C153.178 107.722 154.087 106.792 155.245 106.151C156.402 105.51 157.714 105.19 159.182 105.19C160.69 105.19 161.972 105.5 163.026 106.12C164.08 106.74 164.886 107.587 165.444 108.662C166.002 109.737 166.281 110.956 166.281 112.32C166.281 112.692 166.27 113.043 166.25 113.374C166.229 113.705 166.198 113.994 166.157 114.242H153.695V111.7H164.7L163.057 112.196C163.057 110.791 162.705 109.716 162.003 108.972C161.3 108.207 160.339 107.825 159.12 107.825C158.231 107.825 157.456 108.032 156.795 108.445C156.133 108.858 155.627 109.478 155.276 110.305C154.924 111.111 154.749 112.103 154.749 113.281C154.749 114.438 154.935 115.42 155.307 116.226C155.679 117.032 156.206 117.642 156.888 118.055C157.57 118.468 158.376 118.675 159.306 118.675C160.339 118.675 161.176 118.479 161.817 118.086C162.457 117.693 162.964 117.146 163.336 116.443L165.971 117.683C165.599 118.427 165.092 119.078 164.452 119.636C163.832 120.173 163.088 120.587 162.22 120.876C161.352 121.165 160.401 121.31 159.368 121.31ZM176.421 121.31C175.14 121.31 173.972 120.99 172.918 120.349C171.885 119.708 171.069 118.789 170.469 117.59C169.87 116.391 169.57 114.955 169.57 113.281C169.57 111.545 169.891 110.078 170.531 108.879C171.172 107.68 172.03 106.771 173.104 106.151C174.179 105.51 175.357 105.19 176.638 105.19C177.961 105.19 179.077 105.552 179.986 106.275C180.896 106.998 181.505 107.939 181.815 109.096L181.443 109.437V98.525H184.76V121H181.815L181.567 116.784L182.001 116.815C181.857 117.745 181.516 118.551 180.978 119.233C180.441 119.894 179.769 120.411 178.963 120.783C178.178 121.134 177.331 121.31 176.421 121.31ZM177.134 118.644C178.023 118.644 178.788 118.417 179.428 117.962C180.069 117.507 180.565 116.867 180.916 116.04C181.268 115.213 181.443 114.221 181.443 113.064C181.443 111.989 181.268 111.07 180.916 110.305C180.565 109.52 180.069 108.92 179.428 108.507C178.808 108.094 178.085 107.887 177.258 107.887C175.874 107.887 174.799 108.362 174.034 109.313C173.27 110.264 172.887 111.576 172.887 113.25C172.887 114.924 173.259 116.247 174.003 117.218C174.747 118.169 175.791 118.644 177.134 118.644ZM216.38 121H212.877L210.924 115.637H202.337L200.384 121H196.974L204.693 100.54H208.661L216.38 121ZM203.267 112.94H209.994L206.646 103.392L203.267 112.94ZM225.906 105.19C227.146 105.19 228.2 105.376 229.068 105.748C229.956 106.099 230.7 106.606 231.3 107.267C231.899 107.928 232.354 108.683 232.664 109.53L229.533 110.77C229.264 109.819 228.83 109.096 228.231 108.6C227.652 108.083 226.887 107.825 225.937 107.825C225.007 107.825 224.211 108.042 223.55 108.476C222.888 108.889 222.382 109.499 222.031 110.305C221.7 111.111 221.535 112.103 221.535 113.281C221.535 114.438 221.71 115.42 222.062 116.226C222.413 117.032 222.919 117.642 223.581 118.055C224.242 118.468 225.027 118.675 225.937 118.675C226.639 118.675 227.249 118.561 227.766 118.334C228.282 118.086 228.706 117.745 229.037 117.311C229.388 116.856 229.626 116.309 229.75 115.668L232.757 116.691C232.467 117.621 232.013 118.437 231.393 119.14C230.793 119.822 230.039 120.359 229.13 120.752C228.22 121.124 227.177 121.31 225.999 121.31C224.469 121.31 223.116 120.99 221.938 120.349C220.76 119.708 219.84 118.789 219.179 117.59C218.538 116.371 218.218 114.924 218.218 113.25C218.218 111.576 218.538 110.14 219.179 108.941C219.84 107.722 220.749 106.792 221.907 106.151C223.085 105.51 224.418 105.19 225.906 105.19ZM243.313 105.19C244.553 105.19 245.607 105.376 246.475 105.748C247.364 106.099 248.108 106.606 248.707 107.267C249.306 107.928 249.761 108.683 250.071 109.53L246.94 110.77C246.671 109.819 246.237 109.096 245.638 108.6C245.059 108.083 244.295 107.825 243.344 107.825C242.414 107.825 241.618 108.042 240.957 108.476C240.296 108.889 239.789 109.499 239.438 110.305C239.107 111.111 238.942 112.103 238.942 113.281C238.942 114.438 239.118 115.42 239.469 116.226C239.82 117.032 240.327 117.642 240.988 118.055C241.649 118.468 242.435 118.675 243.344 118.675C244.047 118.675 244.656 118.561 245.173 118.334C245.69 118.086 246.113 117.745 246.444 117.311C246.795 116.856 247.033 116.309 247.157 115.668L250.164 116.691C249.875 117.621 249.42 118.437 248.8 119.14C248.201 119.822 247.446 120.359 246.537 120.752C245.628 121.124 244.584 121.31 243.406 121.31C241.877 121.31 240.523 120.99 239.345 120.349C238.167 119.708 237.247 118.789 236.586 117.59C235.945 116.371 235.625 114.924 235.625 113.25C235.625 111.576 235.945 110.14 236.586 108.941C237.247 107.722 238.157 106.792 239.314 106.151C240.492 105.51 241.825 105.19 243.313 105.19ZM260.751 105.19C262.26 105.19 263.593 105.51 264.75 106.151C265.908 106.792 266.807 107.722 267.447 108.941C268.109 110.14 268.439 111.576 268.439 113.25C268.439 114.924 268.109 116.371 267.447 117.59C266.807 118.789 265.908 119.708 264.75 120.349C263.593 120.99 262.26 121.31 260.751 121.31C259.243 121.31 257.91 120.99 256.752 120.349C255.595 119.708 254.686 118.789 254.024 117.59C253.363 116.371 253.032 114.924 253.032 113.25C253.032 111.576 253.363 110.14 254.024 108.941C254.686 107.722 255.595 106.792 256.752 106.151C257.91 105.51 259.243 105.19 260.751 105.19ZM260.751 107.794C259.821 107.794 259.026 108.011 258.364 108.445C257.724 108.858 257.228 109.468 256.876 110.274C256.525 111.08 256.349 112.072 256.349 113.25C256.349 114.407 256.525 115.399 256.876 116.226C257.228 117.032 257.724 117.652 258.364 118.086C259.026 118.499 259.821 118.706 260.751 118.706C261.681 118.706 262.467 118.499 263.107 118.086C263.748 117.652 264.244 117.032 264.595 116.226C264.947 115.399 265.122 114.407 265.122 113.25C265.122 112.072 264.947 111.08 264.595 110.274C264.244 109.468 263.748 108.858 263.107 108.445C262.467 108.011 261.681 107.794 260.751 107.794ZM278.13 121.31C277.117 121.31 276.177 121.124 275.309 120.752C274.462 120.38 273.78 119.781 273.263 118.954C272.746 118.127 272.488 117.053 272.488 115.73V105.5H275.805V114.893C275.805 116.298 276.105 117.27 276.704 117.807C277.303 118.324 278.14 118.582 279.215 118.582C279.732 118.582 280.228 118.499 280.703 118.334C281.199 118.148 281.643 117.869 282.036 117.497C282.429 117.104 282.728 116.608 282.935 116.009C283.162 115.41 283.276 114.707 283.276 113.901V105.5H286.593V121H283.679L283.524 118.489C282.987 119.46 282.263 120.173 281.354 120.628C280.445 121.083 279.37 121.31 278.13 121.31ZM291.775 121V105.5H294.72L294.937 109.53L294.503 109.096C294.792 108.207 295.206 107.474 295.743 106.895C296.301 106.296 296.952 105.862 297.696 105.593C298.461 105.324 299.267 105.19 300.114 105.19C301.209 105.19 302.191 105.407 303.059 105.841C303.948 106.254 304.65 106.885 305.167 107.732C305.684 108.579 305.942 109.654 305.942 110.956V121H302.625V111.979C302.625 110.45 302.305 109.396 301.664 108.817C301.044 108.218 300.259 107.918 299.308 107.918C298.626 107.918 297.965 108.083 297.324 108.414C296.683 108.724 296.146 109.23 295.712 109.933C295.299 110.636 295.092 111.576 295.092 112.754V121H291.775ZM315.313 100.943V116.35C315.313 117.115 315.509 117.673 315.902 118.024C316.315 118.375 316.863 118.551 317.545 118.551C318.103 118.551 318.589 118.468 319.002 118.303C319.415 118.117 319.798 117.869 320.149 117.559L320.893 119.977C320.418 120.39 319.829 120.721 319.126 120.969C318.444 121.196 317.679 121.31 316.832 121.31C315.943 121.31 315.127 121.165 314.383 120.876C313.639 120.587 313.06 120.122 312.647 119.481C312.234 118.82 312.017 117.962 311.996 116.908V101.873L315.313 100.943ZM320.645 105.5V108.104H309.02V105.5H320.645ZM332.975 111.049C332.975 110.016 332.686 109.22 332.107 108.662C331.549 108.083 330.774 107.794 329.782 107.794C328.852 107.794 328.057 108.011 327.395 108.445C326.734 108.879 326.248 109.582 325.938 110.553L323.148 109.375C323.541 108.114 324.306 107.102 325.442 106.337C326.6 105.572 328.088 105.19 329.906 105.19C331.146 105.19 332.242 105.397 333.192 105.81C334.143 106.203 334.887 106.802 335.424 107.608C335.982 108.414 336.261 109.447 336.261 110.708V117.621C336.261 118.386 336.644 118.768 337.408 118.768C337.78 118.768 338.142 118.716 338.493 118.613L338.307 120.907C337.832 121.134 337.233 121.248 336.509 121.248C335.848 121.248 335.249 121.134 334.711 120.907C334.195 120.659 333.781 120.297 333.471 119.822C333.182 119.326 333.037 118.716 333.037 117.993V117.776L333.719 117.745C333.533 118.551 333.151 119.223 332.572 119.76C331.994 120.277 331.322 120.669 330.557 120.938C329.793 121.186 329.018 121.31 328.232 121.31C327.261 121.31 326.383 121.155 325.597 120.845C324.833 120.535 324.223 120.07 323.768 119.45C323.334 118.809 323.117 118.024 323.117 117.094C323.117 115.937 323.489 114.986 324.233 114.242C324.998 113.498 326.073 112.992 327.457 112.723L333.471 111.545L333.44 113.87L329.069 114.769C328.201 114.934 327.55 115.172 327.116 115.482C326.682 115.792 326.465 116.247 326.465 116.846C326.465 117.425 326.682 117.89 327.116 118.241C327.571 118.572 328.17 118.737 328.914 118.737C329.431 118.737 329.927 118.675 330.402 118.551C330.898 118.427 331.343 118.231 331.735 117.962C332.128 117.673 332.428 117.311 332.634 116.877C332.862 116.422 332.975 115.885 332.975 115.265V111.049ZM341.696 121V105.5H344.641L344.858 109.53L344.424 109.096C344.713 108.207 345.127 107.474 345.664 106.895C346.222 106.296 346.873 105.862 347.617 105.593C348.382 105.324 349.188 105.19 350.035 105.19C351.13 105.19 352.112 105.407 352.98 105.841C353.869 106.254 354.571 106.885 355.088 107.732C355.605 108.579 355.863 109.654 355.863 110.956V121H352.546V111.979C352.546 110.45 352.226 109.396 351.585 108.817C350.965 108.218 350.18 107.918 349.229 107.918C348.547 107.918 347.886 108.083 347.245 108.414C346.604 108.724 346.067 109.23 345.633 109.933C345.22 110.636 345.013 111.576 345.013 112.754V121H341.696ZM365.234 100.943V116.35C365.234 117.115 365.43 117.673 365.823 118.024C366.236 118.375 366.784 118.551 367.466 118.551C368.024 118.551 368.509 118.468 368.923 118.303C369.336 118.117 369.718 117.869 370.07 117.559L370.814 119.977C370.338 120.39 369.749 120.721 369.047 120.969C368.365 121.196 367.6 121.31 366.753 121.31C365.864 121.31 365.048 121.165 364.304 120.876C363.56 120.587 362.981 120.122 362.568 119.481C362.154 118.82 361.937 117.962 361.917 116.908V101.873L365.234 100.943ZM370.566 105.5V108.104H358.941V105.5H370.566ZM379.736 121.31C378.186 121.31 376.771 121.01 375.489 120.411C374.208 119.812 373.195 118.964 372.451 117.869L374.745 115.885C375.2 116.732 375.851 117.414 376.698 117.931C377.566 118.427 378.6 118.675 379.798 118.675C380.749 118.675 381.503 118.51 382.061 118.179C382.619 117.848 382.898 117.383 382.898 116.784C382.898 116.391 382.764 116.05 382.495 115.761C382.247 115.451 381.762 115.213 381.038 115.048L377.783 114.366C376.13 114.035 374.952 113.508 374.249 112.785C373.547 112.041 373.195 111.101 373.195 109.964C373.195 109.117 373.443 108.331 373.939 107.608C374.435 106.885 375.159 106.306 376.109 105.872C377.081 105.417 378.238 105.19 379.581 105.19C381.131 105.19 382.454 105.469 383.549 106.027C384.645 106.564 385.482 107.339 386.06 108.352L383.766 110.274C383.374 109.447 382.795 108.838 382.03 108.445C381.266 108.032 380.47 107.825 379.643 107.825C378.982 107.825 378.414 107.908 377.938 108.073C377.463 108.238 377.101 108.466 376.853 108.755C376.605 109.044 376.481 109.385 376.481 109.778C376.481 110.191 376.636 110.553 376.946 110.863C377.256 111.173 377.814 111.411 378.62 111.576L382.154 112.32C383.642 112.609 384.686 113.105 385.285 113.808C385.905 114.49 386.215 115.327 386.215 116.319C386.215 117.311 385.957 118.189 385.44 118.954C384.924 119.698 384.18 120.277 383.208 120.69C382.237 121.103 381.08 121.31 379.736 121.31Z" fill="#2D5A72"/>
</svg>
